HIERARCHY
ROOT Hips
{
  OFFSET 12.5924 87.7646 8.5502
  CHANNELS 6 Xposition Yposition Zposition Zrotation Xrotation Yrotation
  JOINT RightUpLeg
  {
    OFFSET -9.27424 -1.51647 -0.00177081
    CHANNELS 3 Zrotation Xrotation Yrotation
    JOINT RightLeg
    {
      OFFSET -0.0218595 -41.9179 0.0996455
      CHANNELS 3 Zrotation Xrotation Yrotation
      JOINT RightFoot
      {
        OFFSET -0.864559 -41.9626 -0.357059
        CHANNELS 3 Zrotation Xrotation Yrotation
        End Site
        {
          OFFSET 0 -7.69 17.5
        }
      }
    }
  }
  JOINT LeftUpLeg
  {
    OFFSET 9.25718 -1.5867 0.052377
    CHANNELS 3 Zrotation Xrotation Yrotation
    JOINT LeftLeg
    {
      OFFSET 0.0916619 -41.8676 0.000817906
      CHANNELS 3 Zrotation Xrotation Yrotation
      JOINT LeftFoot
      {
        OFFSET -0.467602 -41.8546 0.208385
        CHANNELS 3 Zrotation Xrotation Yrotation
        End Site
        {
          OFFSET 0 -7.69 17.5
        }
      }
    }
  }
  JOINT Spine
  {
    OFFSET 0.0181296 14.2981 0.0454815
    CHANNELS 3 Zrotation Xrotation Yrotation
    JOINT Spine1
    {
      OFFSET 0.0179205 9.71532 0.0144816
      CHANNELS 3 Zrotation Xrotation Yrotation
      JOINT Spine2
      {
        OFFSET 0.0460832 10.1118 -0.00781291
        CHANNELS 3 Zrotation Xrotation Yrotation
        JOINT Spine3
        {
          OFFSET 0.0326005 9.72657 -0.000132442
          CHANNELS 3 Zrotation Xrotation Yrotation
          JOINT Neck
          {
            OFFSET -0.0594321 10.3688 0.0892585
            CHANNELS 3 Zrotation Xrotation Yrotation
            JOINT Head
            {
              OFFSET -0.027184 9.52116 0.11923
              CHANNELS 3 Zrotation Xrotation Yrotation
              End Site
              {
                OFFSET 0 15.95 0
              }
            }
          }
          JOINT RightShoulder
          {
            OFFSET -3.18249 6.94712 0.0315742
            CHANNELS 3 Zrotation Xrotation Yrotation
            JOINT RightArm
            {
              OFFSET -12.6859 -0.0281953 -0.0223312
              CHANNELS 3 Zrotation Xrotation Yrotation
              JOINT RightForeArm
              {
                OFFSET -26.4349 -0.138904 0.103809
                CHANNELS 3 Zrotation Xrotation Yrotation
                JOINT RightHand
                {
                  OFFSET -26.0404 -0.036643 0.02476
                  CHANNELS 3 Zrotation Xrotation Yrotation
                  JOINT RightHandThumb1
                  {
                    OFFSET -2.48905 0.190105 3.12053
                    CHANNELS 3 Zrotation Xrotation Yrotation
                    JOINT RightHandThumb2
                    {
                      OFFSET -3.68274 0 0
                      CHANNELS 3 Zrotation Xrotation Yrotation
                      JOINT RightHandThumb3
                      {
                        OFFSET -2.55832 0 0
                        CHANNELS 3 Zrotation Xrotation Yrotation
                        End Site
                        {
                          OFFSET -2.194 0 0
                        }
                      }
                    }
                  }
                  JOINT RightInHandIndex
                  {
                    OFFSET -3.22368 0.508421 1.97842
                    CHANNELS 3 Zrotation Xrotation Yrotation
                    JOINT RightHandIndex1
                    {
                      OFFSET -5.21684 -0.091368 0.999158
                      CHANNELS 3 Zrotation Xrotation Yrotation
                      JOINT RightHandIndex2
                      {
                        OFFSET -3.61937 0 0
                        CHANNELS 3 Zrotation Xrotation Yrotation
                        JOINT RightHandIndex3
                        {
                          OFFSET -2.0521 0 0
                          CHANNELS 3 Zrotation Xrotation Yrotation
                          End Site
                          {
                            OFFSET -1.805 0 0
                          }
                        }
                      }
                    }
                  }
                  JOINT RightInHandMiddle
                  {
                    OFFSET -3.38211 0.517263 0.756737
                    CHANNELS 3 Zrotation Xrotation Yrotation
                    JOINT RightHandMiddle1
                    {
                      OFFSET -5.17411 -0.084 0.313895
                      CHANNELS 3 Zrotation Xrotation Yrotation
                      JOINT RightHandMiddle2
                      {
                        OFFSET -3.94947 0 0
                        CHANNELS 3 Zrotation Xrotation Yrotation
                        JOINT RightHandMiddle3
                        {
                          OFFSET -2.47579 0 0
                          CHANNELS 3 Zrotation Xrotation Yrotation
                          End Site
                          {
                            OFFSET -1.975 0 0
                          }
                        }
                      }
                    }
                  }
                  JOINT RightInHandRing
                  {
                    OFFSET -3.36516 0.537895 -0.128947
                    CHANNELS 3 Zrotation Xrotation Yrotation
                    JOINT RightHandRing1
                    {
                      OFFSET -4.63474 -0.022105 -0.478947
                      CHANNELS 3 Zrotation Xrotation Yrotation
                      JOINT RightHandRing2
                      {
                        OFFSET -3.44238 0 0
                        CHANNELS 3 Zrotation Xrotation Yrotation
                        JOINT RightHandRing3
                        {
                          OFFSET -2.3881 0 0
                          CHANNELS 3 Zrotation Xrotation Yrotation
                          End Site
                          {
                            OFFSET -1.857 0 0
                          }
                        }
                      }
                    }
                  }
                  JOINT RightInHandPinky
                  {
                    OFFSET -3.16105 0.469368 -1.20179
                    CHANNELS 3 Zrotation Xrotation Yrotation
                    JOINT RightHandPinky1
                    {
                      OFFSET -4.14105 -0.022105 -1.09053
                      CHANNELS 3 Zrotation Xrotation Yrotation
                      JOINT RightHandPinky2
                      {
                        OFFSET -2.75653 0 0
                        CHANNELS 3 Zrotation Xrotation Yrotation
                        JOINT RightHandPinky3
                        {
                          OFFSET -1.74189 0 0
                          CHANNELS 3 Zrotation Xrotation Yrotation
                          End Site
                          {
                            OFFSET -1.645 0 0
                          }
                        }
                      }
                    }
                  }
                }
              }
            }
          }
          JOINT LeftShoulder
          {
            OFFSET 3.21289 6.91298 -0.0113859
            CHANNELS 3 Zrotation Xrotation Yrotation
            JOINT LeftArm
            {
              OFFSET 12.7691 -0.0256594 -0.0399854
              CHANNELS 3 Zrotation Xrotation Yrotation
              JOINT LeftForeArm
              {
                OFFSET 26.4177 -0.0137926 -0.00219879
                CHANNELS 3 Zrotation Xrotation Yrotation
                JOINT LeftHand
                {
                  OFFSET 26.0013 -0.0633708 -0.0119906
                  CHANNELS 3 Zrotation Xrotation Yrotation
                  JOINT LeftHandThumb1
                  {
                    OFFSET 2.48905 0.190105 3.12053
                    CHANNELS 3 Zrotation Xrotation Yrotation
                    JOINT LeftHandThumb2
                    {
                      OFFSET 3.68274 0 0
                      CHANNELS 3 Zrotation Xrotation Yrotation
                      JOINT LeftHandThumb3
                      {
                        OFFSET 2.55832 0 0
                        CHANNELS 3 Zrotation Xrotation Yrotation
                        End Site
                        {
                          OFFSET 2.194 0 0
                        }
                      }
                    }
                  }
                  JOINT LeftInHandIndex
                  {
                    OFFSET 3.22368 0.508421 1.97842
                    CHANNELS 3 Zrotation Xrotation Yrotation
                    JOINT LeftHandIndex1
                    {
                      OFFSET 5.21684 -0.091368 0.999158
                      CHANNELS 3 Zrotation Xrotation Yrotation
                      JOINT LeftHandIndex2
                      {
                        OFFSET 3.61937 0 0
                        CHANNELS 3 Zrotation Xrotation Yrotation
                        JOINT LeftHandIndex3
                        {
                          OFFSET 2.0521 0 0
                          CHANNELS 3 Zrotation Xrotation Yrotation
                          End Site
                          {
                            OFFSET 1.805 0 0
                          }
                        }
                      }
                    }
                  }
                  JOINT LeftInHandMiddle
                  {
                    OFFSET 3.38211 0.517263 0.756737
                    CHANNELS 3 Zrotation Xrotation Yrotation
                    JOINT LeftHandMiddle1
                    {
                      OFFSET 5.17411 -0.084 0.313895
                      CHANNELS 3 Zrotation Xrotation Yrotation
                      JOINT LeftHandMiddle2
                      {
                        OFFSET 3.94947 0 0
                        CHANNELS 3 Zrotation Xrotation Yrotation
                        JOINT LeftHandMiddle3
                        {
                          OFFSET 2.47579 0 0
                          CHANNELS 3 Zrotation Xrotation Yrotation
                          End Site
                          {
                            OFFSET 1.975 0 0
                          }
                        }
                      }
                    }
                  }
                  JOINT LeftInHandRing
                  {
                    OFFSET 3.36516 0.537895 -0.128947
                    CHANNELS 3 Zrotation Xrotation Yrotation
                    JOINT LeftHandRing1
                    {
                      OFFSET 4.63474 -0.022105 -0.478947
                      CHANNELS 3 Zrotation Xrotation Yrotation
                      JOINT LeftHandRing2
                      {
                        OFFSET 3.44238 0 0
                        CHANNELS 3 Zrotation Xrotation Yrotation
                        JOINT LeftHandRing3
                        {
                          OFFSET 2.3881 0 0
                          CHANNELS 3 Zrotation Xrotation Yrotation
                          End Site
                          {
                            OFFSET 1.857 0 0
                          }
                        }
                      }
                    }
                  }
                  JOINT LeftInHandPinky
                  {
                    OFFSET 3.16105 0.469368 -1.20179
                    CHANNELS 3 Zrotation Xrotation Yrotation
                    JOINT LeftHandPinky1
                    {
                      OFFSET 4.14105 -0.022105 -1.09053
                      CHANNELS 3 Zrotation Xrotation Yrotation
                      JOINT LeftHandPinky2
                      {
                        OFFSET 2.75653 0 0
                        CHANNELS 3 Zrotation Xrotation Yrotation
                        JOINT LeftHandPinky3
                        {
                          OFFSET 1.74189 0 0
                          CHANNELS 3 Zrotation Xrotation Yrotation
                          End Site
                          {
                            OFFSET 1.645 0 0
                          }
                        }
                      }
                    }
                  }
                }
              }
            }
          }
        }
      }
    }
  }
}
MOTION
Frames: 3
Frame Time: 0.00833333
4.498458237796370440e+02 8.514350418977724433e-03 5.966708525664728840e-02 -1.053605853554672178e-01 -2.476299513463612045e-01 6.001056518952980756e-01 -9.698241467404210558e-01 -9.587824963661076283e-02 -1.344386312563357277e+00 1.397277498347225255e-01 8.843186973707471699e-02 -1.195738440420574256e-01 -2.055757193118477877e-01 -1.125396421651798096e-01 3.834965491890497402e-01 -1.041363337826800350e+00 -4.996971556186440705e-02 -1.238941572743717634e+00 -4.336805954076928815e-01 -5.299573669011468091e-01 5.680005981512585844e-01 1.143237406006914203e-01 3.314141268485242264e-01 -1.722061714405670185e-01 -9.515640878702349981e-02 -2.826860452786527644e-01 2.559150383140996743e-01 1.345790590624782943e-02 -2.705899411818898925e-01 4.546933929230550370e-02 2.189391683675367961e-02 -2.179207362629071720e-01 1.462078182165002793e-01 4.312500943525007790e-02 9.168334509761623397e-02 -4.368104810181525077e-02 2.219080969234465267e-02 -2.537772928530609984e-01 2.158457388297410073e+00 6.561909585182638116e-01 2.223437786598047694e+00 -2.423801787092942472e+00 1.122586096021182867e+00 -2.920915272684580510e-01 -1.971204881720452606e+00 -4.691476202391823058e+00 6.030198034272067353e+00 2.838178470440003931e+00 -3.548901006558633942e+00 -5.173895704514401395e+00 -7.687933283773964455e-01 3.526441009094467560e+00 1.916766887087383076e+00 2.607893231026381820e+00 0.000000000000000000e+00 0.000000000000000000e+00 0.000000000000000000e+00 5.468557260892691132e-15 -2.518981319281204459e-15 0.000000000000000000e+00 -3.029305137710888948e-15 -3.940954699806279639e-15 0.000000000000000000e+00 -6.248649893910070231e-16 -1.245525702921423628e-15 -4.270002655831925492e-15 0.000000000000000000e+00 0.000000000000000000e+00 0.000000000000000000e+00 0.000000000000000000e+00 -4.202661176169420150e-15 2.607531649097889917e-15 0.000000000000000000e+00 6.502083854897999727e-15 1.439110967024334754e-14 -6.248649893910070231e-16 -1.245525702921423628e-15 -4.270002655831925492e-15 0.000000000000000000e+00 -2.922546328541873842e-15 1.296309916310068968e-15 0.000000000000000000e+00 1.448205156980631732e-15 1.350626008078946860e-14 0.000000000000000000e+00 -1.674572586095460611e-15 9.011286905647423180e-15 -6.248649893910070231e-16 -1.245525702921423628e-15 -4.270002655831925492e-15 0.000000000000000000e+00 0.000000000000000000e+00 0.000000000000000000e+00 0.000000000000000000e+00 2.653357240612131107e-15 8.476660092709477628e-15 0.000000000000000000e+00 1.958960156244256261e-15 1.632725944027666878e-14 -6.248649893910070231e-16 -1.245525702921423628e-15 -4.270002655831925492e-15 0.000000000000000000e+00 0.000000000000000000e+00 0.000000000000000000e+00 0.000000000000000000e+00 2.289950842226638310e-15 7.793747716301082982e-15 0.000000000000000000e+00 -1.539720789061093763e-15 1.951185392713308009e-14 3.638857081733800486e-02 1.223980108977022231e-02 -1.289055866435928399e+00 8.579825349657828060e-01 -5.105359998338516725e+00 -3.063229185430255352e+00 2.895154364211676157e+00 -1.477690645988229967e+00 2.138455259082089110e+00 -1.328038866537927021e+01 4.833669615088068028e+00 -8.668416403724583219e+00 0.000000000000000000e+00 0.000000000000000000e+00 0.000000000000000000e+00 1.181766109429778583e-15 1.130650065453928837e-15 0.000000000000000000e+00 -1.109668672120828865e-15 9.405365735719906974e-16 0.000000000000000000e+00 3.240234399845491133e-15 2.315018995700146476e-15 -2.200432220868511537e-15 0.000000000000000000e+00 0.000000000000000000e+00 0.000000000000000000e+00 0.000000000000000000e+00 7.303694082902140598e-15 -8.294897474535941145e-15 0.000000000000000000e+00 -6.072733507090952875e-15 -1.049228981187078914e-14 3.240234399845491133e-15 2.315018995700146476e-15 -2.200432220868511537e-15 0.000000000000000000e+00 1.120121738165500049e-15 -2.916842397880690709e-15 0.000000000000000000e+00 1.692063151348797089e-15 -1.582630070151463492e-15 0.000000000000000000e+00 -9.010631006597201609e-17 -3.575387420907796256e-15 3.240234399845491133e-15 2.315018995700146476e-15 -2.200432220868511537e-15 0.000000000000000000e+00 0.000000000000000000e+00 0.000000000000000000e+00 0.000000000000000000e+00 2.474900091307863565e-15 1.207161652519800187e-15 0.000000000000000000e+00 -1.899825687497386835e-15 -5.155123657078902667e-15 3.240234399845491133e-15 2.315018995700146476e-15 -2.200432220868511537e-15 0.000000000000000000e+00 0.000000000000000000e+00 0.000000000000000000e+00 0.000000000000000000e+00 -1.259516272130259596e-15 -2.468535537951304257e-15 0.000000000000000000e+00 -1.220523498441707165e-15 -3.596682554734447562e-15
4.498547570904037229e+02 5.458319125238577860e-03 8.720026794058212405e-02 -9.140125350682745675e-02 -3.206749693883052532e-01 5.714465616360224764e-01 -8.336935115780088612e-01 -1.088949164438035022e-01 -1.246557451653692361e+00 1.038730165290826374e-01 9.362646549410297281e-02 -8.534492343241974199e-02 -2.284731144071833753e-01 -1.022729326350883677e-01 4.094168757371423606e-01 -9.245553537321293813e-01 -2.428201394594213872e-02 -1.119381991820215694e+00 -5.148000449641998433e-01 -5.211526423625647553e-01 6.142945092411595809e-01 1.179855477937754304e-01 3.487468062893305243e-01 -1.736781909375113286e-01 -1.255701353518702823e-01 -3.135098916657856338e-01 2.876157248501709507e-01 1.004366799641442411e-02 -2.907316812310123955e-01 5.045129344088436496e-02 1.454852838467393314e-02 -2.160033390630085315e-01 1.630590734921432416e-01 5.038893011960472734e-02 9.750018578559653537e-02 -4.610952823711037679e-02 -2.949350670506823563e-02 -2.670530703611446177e-01 2.407164315783666630e+00 8.210843760267469982e-01 2.333386275485631600e+00 -2.653198006177247326e+00 1.134561057234410475e+00 -1.310087019713080392e-01 -1.773774839667564773e+00 -5.000229439909674944e+00 5.340153846649243086e+00 3.431549966447549505e+00 -3.972334925271507000e+00 -4.518438611037292496e+00 -1.605555516520626114e+00 3.730626041833870143e+00 2.316981621225170151e+00 3.806923252285885351e+00 0.000000000000000000e+00 0.000000000000000000e+00 0.000000000000000000e+00 5.084125803119992221e-15 -3.310807612886970085e-15 0.000000000000000000e+00 -2.706098385773144654e-15 -4.620011269097964055e-15 0.000000000000000000e+00 -6.501036750071302000e-16 -9.532835212930956073e-16 -4.735625345108787123e-15 0.000000000000000000e+00 0.000000000000000000e+00 0.000000000000000000e+00 0.000000000000000000e+00 -4.724115129642497729e-15 3.477633174920888186e-15 0.000000000000000000e+00 6.706141342265312993e-15 1.480974626513856774e-14 -6.501036750071302000e-16 -9.532835212930956073e-16 -4.735625345108787123e-15 0.000000000000000000e+00 -3.199556036553888146e-15 1.560982014240215726e-15 0.000000000000000000e+00 7.208372857907285238e-16 1.464902599435962367e-14 0.000000000000000000e+00 -1.720299308389203317e-15 9.014409127759828142e-15 -6.501036750071302000e-16 -9.532835212930956073e-16 -4.735625345108787123e-15 0.000000000000000000e+00 0.000000000000000000e+00 0.000000000000000000e+00 0.000000000000000000e+00 2.389309492436757277e-15 8.943233594990767290e-15 0.000000000000000000e+00 2.131447744067770691e-15 1.655021573014141134e-14 -6.501036750071302000e-16 -9.532835212930956073e-16 -4.735625345108787123e-15 0.000000000000000000e+00 0.000000000000000000e+00 0.000000000000000000e+00 0.000000000000000000e+00 2.126451789991593252e-15 5.839431689507224625e-15 0.000000000000000000e+00 -1.290444632115872342e-15 2.138796110091105423e-14 5.906596164152114886e-02 -4.738837437883675063e-02 -1.224113013186087340e+00 1.729167803477633880e+00 -5.165605331018015001e+00 -4.384847702972117567e+00 2.791002495300532349e+00 -1.551737557601099882e+00 2.382663152341528257e+00 -1.359157085579799151e+01 5.505117267319339369e+00 -8.872440868352468257e+00 0.000000000000000000e+00 0.000000000000000000e+00 0.000000000000000000e+00 1.324961920349025776e-15 4.998216937445642506e-16 0.000000000000000000e+00 -1.991175977344955383e-15 1.393781065834247175e-15 0.000000000000000000e+00 3.432543303821157578e-15 2.388103262730533257e-15 -2.333520725478880743e-15 0.000000000000000000e+00 0.000000000000000000e+00 0.000000000000000000e+00 0.000000000000000000e+00 7.121737099280006813e-15 -1.017586994818415050e-14 0.000000000000000000e+00 -6.467365673242901477e-15 -1.034070358660767992e-14 3.432543303821157578e-15 2.388103262730533257e-15 -2.333520725478880743e-15 0.000000000000000000e+00 2.414262503737262708e-15 -4.478089894334745097e-15 0.000000000000000000e+00 2.028115578425228841e-15 -2.550930060379972020e-15 0.000000000000000000e+00 -7.718378751027043877e-16 -3.574609018544979289e-15 3.432543303821157578e-15 2.388103262730533257e-15 -2.333520725478880743e-15 0.000000000000000000e+00 0.000000000000000000e+00 0.000000000000000000e+00 0.000000000000000000e+00 2.210850904014423076e-15 3.523292045366712180e-16 0.000000000000000000e+00 -2.231468738405192429e-15 -5.307018907052570520e-15 3.432543303821157578e-15 2.388103262730533257e-15 -2.333520725478880743e-15 0.000000000000000000e+00 0.000000000000000000e+00 0.000000000000000000e+00 0.000000000000000000e+00 -3.194013636310532101e-16 -4.666463848866603896e-15 0.000000000000000000e+00 -6.459684038954511738e-16 -3.851796395210706968e-15
4.498643551319253220e+02 2.799926983787697030e-03 1.159306811209148136e-01 -8.289979579127020048e-02 -3.909263076993271802e-01 5.308120953662376351e-01 -6.880852284962640786e-01 -1.165623321194454443e-01 -1.124989607767326261e+00 6.472429444486119121e-02 1.002508281190459122e-01 -4.581765023611532317e-02 -2.473844922919852807e-01 -9.422108608760672299e-02 4.238638216459469366e-01 -7.994632541521707880e-01 7.842156346517780915e-03 -9.812155517681897532e-01 -5.951824876518463370e-01 -5.123551037380759121e-01 6.623449930330240765e-01 1.230864826626923147e-01 3.679484308265079662e-01 -1.801449506516507870e-01 -1.619975280695681863e-01 -3.475966508907100128e-01 2.738362559330685397e-01 4.531786081424772628e-03 -3.126188329845905889e-01 4.282127481528563706e-02 3.906029197667209955e-03 -2.163830472832564689e-01 1.618394174064838043e-01 5.730602103370834033e-02 1.015002678517117479e-01 -4.580140316958321994e-02 -9.791825729173506132e-02 -2.891100438690455410e-01 2.733485248209458263e+00 9.888919346063623772e-01 2.443140686487203173e+00 -2.879565613677278257e+00 1.122606012154635291e+00 6.428002483468264749e-02 -1.484409671540623643e+00 -5.258764415213609489e+00 4.619447355404985522e+00 4.007733876473892565e+00 -4.380794090428809184e+00 -3.793403069539546646e+00 -2.445007629747654398e+00 3.873475734610207777e+00 2.666833116234543777e+00 4.993616209363506364e+00 0.000000000000000000e+00 0.000000000000000000e+00 0.000000000000000000e+00 4.583079379540482635e-15 -4.098310728039466076e-15 0.000000000000000000e+00 -2.108150288846948537e-15 -5.064369453369143667e-15 0.000000000000000000e+00 -6.653943507248593939e-16 -6.646261316131459258e-16 -4.944430900154835642e-15 0.000000000000000000e+00 0.000000000000000000e+00 0.000000000000000000e+00 0.000000000000000000e+00 -5.367363055687265830e-15 4.325773135312728433e-15 0.000000000000000000e+00 6.688154172485604926e-15 1.468745428318328339e-14 -6.653943507248593939e-16 -6.646261316131459258e-16 -4.944430900154835642e-15 0.000000000000000000e+00 -3.314732104457274880e-15 2.015004011798138099e-15 0.000000000000000000e+00 1.310801661792996447e-16 1.555322256977145384e-14 0.000000000000000000e+00 -1.729593856360739370e-15 8.761861334948514702e-15 -6.653943507248593939e-16 -6.646261316131459258e-16 -4.944430900154835642e-15 0.000000000000000000e+00 0.000000000000000000e+00 0.000000000000000000e+00 0.000000000000000000e+00 1.771914648771948659e-15 9.469006081172459043e-15 0.000000000000000000e+00 2.301019599490773462e-15 1.616192009354269280e-14 -6.653943507248593939e-16 -6.646261316131459258e-16 -4.944430900154835642e-15 0.000000000000000000e+00 0.000000000000000000e+00 0.000000000000000000e+00 0.000000000000000000e+00 1.699815231346928868e-15 3.638267990337616118e-15 0.000000000000000000e+00 -1.073107466059873932e-15 2.292476587747448895e-14 8.900478129470479338e-02 -7.253597835621292123e-02 -1.070420400953655093e+00 2.508806459586341742e+00 -5.147760893551045491e+00 -5.594815936031663384e+00 2.668092305823948518e+00 -1.631511344136179265e+00 2.670802192816998044e+00 -1.387333725154750041e+01 6.119005528250623271e+00 -9.084104591930774575e+00 0.000000000000000000e+00 0.000000000000000000e+00 0.000000000000000000e+00 1.402029161337550129e-15 -4.066868461097284847e-16 0.000000000000000000e+00 -2.540885974409172855e-15 1.634393805985630843e-15 0.000000000000000000e+00 3.536627367851688511e-15 2.386718563169514258e-15 -2.454647989167295908e-15 0.000000000000000000e+00 0.000000000000000000e+00 0.000000000000000000e+00 0.000000000000000000e+00 6.598213773235145883e-15 -1.165415608099622477e-14 0.000000000000000000e+00 -6.581826256874204716e-15 -9.821582787457245742e-15 3.536627367851688511e-15 2.386718563169514258e-15 -2.454647989167295908e-15 0.000000000000000000e+00 3.838631528957237447e-15 -6.022751998928867241e-15 0.000000000000000000e+00 2.450308066788965474e-15 -3.147297076309906114e-15 0.000000000000000000e+00 -1.558173685279392013e-15 -3.630753557292398464e-15 3.536627367851688511e-15 2.386718563169514258e-15 -2.454647989167295908e-15 0.000000000000000000e+00 0.000000000000000000e+00 0.000000000000000000e+00 0.000000000000000000e+00 1.942455800914496451e-15 -3.605824141515917745e-16 0.000000000000000000e+00 -2.513602758947048932e-15 -5.419729440958838653e-15 3.536627367851688511e-15 2.386718563169514258e-15 -2.454647989167295908e-15 0.000000000000000000e+00 0.000000000000000000e+00 0.000000000000000000e+00 0.000000000000000000e+00 7.939949533776411907e-16 -6.751475606339986557e-15 0.000000000000000000e+00 -4.927654873245365207e-18 -4.078312319562077453e-15
